<?xml version="1.0" standalone="no"?>
<!DOCTYPE svg PUBLIC "-//W3C//DTD SVG 20010904//EN"
 "http://www.w3.org/TR/2001/REC-SVG-20010904/DTD/svg10.dtd">
<svg version="1.0" xmlns="http://www.w3.org/2000/svg"
 width="1280.000000pt" height="1280.000000pt" viewBox="0 0 1280.000000 1280.000000"
 preserveAspectRatio="xMidYMid meet">
<metadata>
Created by potrace 1.11, written by Peter Selinger 2001-2013
</metadata>
<g transform="translate(0.000000,1280.000000) scale(0.100000,-0.100000)"
fill="#000000" stroke="none">
<path d="M8057 12634 c-1 -1 -47 -4 -102 -8 -55 -3 -111 -8 -124 -11 -12 -2
-44 -7 -70 -10 -25 -4 -55 -8 -66 -10 -11 -2 -33 -6 -50 -9 -31 -6 -95 -20
-155 -34 l-35 -9 40 -19 c22 -10 59 -31 82 -46 23 -16 44 -28 47 -28 22 0 170
-152 204 -209 108 -185 94 -376 -53 -676 -83 -169 -189 -321 -319 -459 l-56
-59 -67 29 c-38 16 -70 29 -73 30 -3 0 -16 5 -30 11 -87 36 -271 88 -380 108
-19 3 -90 8 -158 11 -212 7 -345 -36 -456 -149 -95 -98 -141 -207 -145 -347
-5 -193 104 -411 311 -623 54 -56 98 -101 98 -102 0 0 -10 -1 -22 -3 -13 -1
-95 -18 -183 -37 -88 -20 -169 -38 -180 -40 -50 -11 -293 -81 -410 -117 -530
-166 -885 -377 -987 -587 -28 -58 -32 -75 -32 -152 0 -57 5 -93 13 -103 8 -9
10 -16 7 -16 -4 0 0 -10 8 -22 17 -24 22 -53 7 -43 -9 5 -89 23 -136 30 -11 2
-47 8 -80 14 -114 20 -288 27 -405 17 -150 -14 -330 -75 -400 -137 -14 -11
-32 -26 -41 -33 -29 -20 -87 -110 -104 -161 -51 -153 10 -360 167 -562 52 -68
55 -73 35 -73 -15 0 -36 -45 -136 -284 -55 -130 -199 -503 -245 -636 -21 -58
-40 -112 -43 -120 -4 -8 -7 -18 -7 -22 -3 -21 -42 -13 -66 12 -15 16 -379 199
-525 263 -224 100 -556 214 -705 243 -14 3 -59 12 -100 20 -41 8 -93 18 -115
20 -22 3 -63 9 -92 13 -59 9 -351 6 -403 -4 -19 -3 -48 -7 -65 -9 -82 -8 -265
-73 -354 -126 -29 -16 -54 -30 -56 -30 -9 0 -101 -73 -156 -124 -208 -192
-357 -493 -437 -881 -25 -119 -30 -145 -37 -205 -3 -25 -7 -61 -10 -80 -2 -19
-7 -69 -11 -110 -3 -41 -8 -88 -10 -105 -24 -184 -23 -958 1 -1086 3 -12 7
-52 10 -88 3 -36 7 -77 9 -91 3 -14 8 -47 11 -75 14 -101 24 -157 42 -240 8
-38 17 -83 20 -99 2 -15 20 -85 40 -155 19 -69 36 -131 37 -138 1 -7 5 -16 9
-19 4 -4 7 -17 7 -29 0 -12 3 -25 7 -29 4 -3 8 -12 9 -19 9 -50 115 -301 189
-446 80 -156 214 -363 289 -448 6 -6 28 -31 48 -56 75 -88 230 -238 292 -282
16 -11 33 -25 40 -31 42 -40 289 -194 310 -194 7 0 16 -4 21 -9 11 -10 171
-82 189 -85 6 -1 16 -4 21 -8 10 -6 174 -56 205 -62 8 -2 33 -7 55 -11 22 -5
42 -9 45 -10 3 -1 30 -5 60 -9 30 -5 64 -10 75 -13 16 -3 264 -16 300 -15 74
2 212 15 288 27 23 4 37 2 38 -4 2 -14 4 -22 14 -46 4 -11 25 -65 47 -120 36
-93 155 -344 168 -355 3 -3 25 -39 50 -80 49 -85 123 -187 206 -287 59 -71
235 -248 295 -296 19 -15 48 -38 64 -52 17 -14 86 -63 155 -109 342 -229 756
-386 1230 -465 148 -25 175 -29 246 -36 32 -3 70 -8 84 -10 67 -12 459 -32
1175 -60 668 -26 1757 -26 2230 0 170 9 284 17 315 20 19 3 69 7 110 10 178
13 204 15 229 19 14 3 55 7 91 11 36 4 76 8 90 10 14 2 54 6 90 10 36 3 72 8
80 10 8 2 35 7 60 10 57 8 98 14 130 20 14 3 39 7 55 10 17 3 41 7 55 10 13 2
42 7 65 10 22 4 56 10 75 15 19 5 49 12 65 14 45 9 151 32 220 50 6 2 24 6 40
10 394 100 829 290 1073 469 122 90 193 150 278 235 352 353 562 817 649 1439
3 23 8 57 11 75 2 18 7 62 10 98 2 36 7 79 9 95 22 176 23 771 0 1062 -2 32
-7 96 -10 143 -11 146 -15 194 -20 235 -2 22 -7 72 -11 110 -9 93 -18 183 -29
275 -3 19 -7 58 -10 85 -4 28 -8 61 -10 75 -2 14 -7 52 -11 85 -3 33 -8 67 -9
75 -2 9 -6 43 -10 75 -4 33 -9 69 -11 79 -2 11 -8 56 -14 100 -19 142 -21 151
-25 176 -3 14 -7 43 -10 65 -4 22 -10 65 -15 95 -5 30 -12 71 -14 90 -4 31
-119 716 -131 780 -2 14 -11 63 -19 110 -8 47 -22 126 -31 175 -9 50 -18 101
-21 115 -2 14 -7 42 -10 63 -7 44 -8 52 -17 87 -4 14 -20 104 -38 200 -40 225
-38 213 -54 295 -8 39 -17 86 -20 105 -3 19 -8 46 -10 60 -3 14 -7 34 -9 45
-27 145 -37 194 -41 215 -13 59 -13 84 1 123 44 124 59 266 41 394 -21 155
-124 312 -272 417 -86 61 -264 144 -349 161 -10 3 -33 9 -50 14 -17 6 -42 12
-56 15 -14 3 -50 10 -80 16 -107 21 -222 35 -375 45 -108 7 -410 7 -514 0
l-84 -6 7 23 c6 21 25 111 40 193 3 17 9 68 13 115 20 256 -9 452 -95 640 -27
60 -120 186 -169 230 -137 121 -327 206 -523 235 -19 3 -55 9 -80 13 -52 8
-416 8 -472 0 -21 -3 -38 -5 -38 -4 0 1 13 42 30 90 30 90 88 288 95 328 3 13
7 34 10 48 3 14 7 36 10 50 3 14 7 36 10 50 9 42 13 66 21 117 3 26 8 57 10
67 23 128 23 392 0 568 -30 230 -154 459 -318 585 -86 66 -240 138 -339 159
-89 18 -131 25 -195 30 -65 5 -223 11 -227 8z m-5565 -6659 c99 -17 207 -41
248 -55 14 -5 72 -23 130 -41 58 -17 108 -35 112 -38 4 -4 1 -28 -7 -55 -8
-27 -16 -62 -17 -77 -1 -16 -5 -29 -8 -29 -3 0 -6 -8 -7 -17 -1 -10 -11 -56
-23 -103 -11 -47 -23 -92 -25 -100 -14 -62 -89 -421 -101 -485 -26 -150 -63
-380 -69 -435 -3 -30 -7 -62 -10 -70 -4 -16 -11 -71 -20 -165 -3 -33 -8 -76
-11 -95 -3 -19 -7 -62 -9 -95 -3 -33 -7 -89 -10 -125 -13 -163 -17 -271 -17
-487 l-1 -232 -90 5 c-263 13 -290 17 -397 49 -124 38 -210 89 -306 181 -139
134 -253 369 -288 594 -3 19 -8 46 -11 60 -32 154 -21 616 20 780 0 3 5 28 10
55 5 28 9 52 10 55 1 3 5 23 10 45 5 22 10 42 10 45 107 421 277 743 427 808
115 50 264 59 450 27z"/>
</g>
</svg>
